<?xml version="1.0" encoding="UTF-8"?>
<svg width="100pt" height="100pt" version="1.1" viewBox="0 0 100 100" xmlns="http://www.w3.org/2000/svg">
 <path d="m69 15v-6.7109c0-1.5742-1.4297-2.8477-3-2.8477s-3 1.2734-3 2.8477v6.7109h-26v-6.7109c0-1.5742-1.4258-2.8477-3-2.8477s-3 1.2734-3 2.8477v6.7109h-23v82h84v-82zm-11 11.996c0-3.6641 2-6.7305 5-7.8164v6.1953c0 1.5742 1.4297 2.8477 3 2.8477s3-1.2734 3-2.8477v-6.1953c3 1.0859 6 4.1562 6 7.8164v0.55078c0 4.5664-4.0195 8.4531-8.5898 8.4531h-0.55078c-4.5664 0-7.8594-3.8867-7.8594-8.4531zm-33 0c0-3.6641 3-6.7305 6-7.8164v6.1953c0 1.5742 1.4258 2.8477 3 2.8477s3-1.2734 3-2.8477v-6.1953c3 1.0859 5 4.1562 5 7.8164v0.55078c0 4.5664-3.293 8.4531-7.8594 8.4531h-0.55078c-4.5664 0-8.5898-3.8867-8.5898-8.4531zm63 66.004h-76v-51h76z" fill="#fad97c"/>
</svg>
